<svg xmlns="http://www.w3.org/2000/svg" width="32" height="32" viewBox="0 0 32 32"><path fill="#1da1f2" d="M32 6.076a13.14 13.14 0 0 1-3.769 1.031A6.601 6.601 0 0 0 31.115 4.1a13.195 13.195 0 0 1-4.169 1.594A6.563 6.563 0 0 0 22.155 2c-3.626 0-6.563 2.938-6.563 6.563c0 .514.058 1.016.17 1.496C10.304 9.87 5.466 7.6 2.228 4.149c-.564.967-.888 2.092-.888 3.293c0 2.272 1.157 4.281 2.918 5.457a6.533 6.533 0 0 1-2.975-.822v.083c0 3.177 2.26 5.828 5.262 6.431c-.551.15-1.132.23-1.731.23c-.424 0-.834-.041-1.235-.117c.835 2.606 3.26 4.504 6.134 4.555A13.168 13.168 0 0 1 0 27.026A18.575 18.575 0 0 0 10.063 30c12.072 0 18.684-10.004 18.684-18.684c0-.285-.006-.568-.02-.85A13.348 13.348 0 0 0 32 6.076z"/></svg>